<svg id="Layer_1" data-name="Layer 1" xmlns="http://www.w3.org/2000/svg" xmlns:xlink="http://www.w3.org/1999/xlink" viewBox="0 0 36.73384 36.36257"><defs><style>.cls-1{fill:url(#linear-gradient);}.cls-2{fill:#269944;}.cls-3{fill:#9b6437;}.cls-4{fill:url(#linear-gradient-2);}.cls-5{isolation:isolate;font-size:5.20077px;font-family:nevis-Bold, nevis;font-weight:700;}.cls-5,.cls-6{fill:#1d1d1b;}</style><linearGradient id="linear-gradient" x1="14.12719" y1="-57.91347" x2="39.15285" y2="-57.91347" gradientTransform="matrix(1, 0, 0, -1, -13.8837, -29.0033)" gradientUnits="userSpaceOnUse"><stop offset="0.00559" stop-color="#f9bd5f"/><stop offset="1" stop-color="#b76916"/></linearGradient><linearGradient id="linear-gradient-2" x1="1635.21999" y1="-57.91347" x2="1660.24561" y2="-57.91347" gradientTransform="translate(1668.56138 -29.0033) rotate(180)" xlink:href="#linear-gradient"/></defs><title>ibomtroptrad</title><path class="cls-1" d="M25.26915,31.72169A19.62378,19.62378,0,0,1,.24349,24.56311c1.96777-.56789,5.66862-.878,11.14022,1.71423A91.63249,91.63249,0,0,0,25.26915,31.72169Z"/><path class="cls-2" d="M28.209,7.22432s-1.71042-3.85349-6.49376-2.23774C21.71525,4.98658,27.23452-.421,28.209,7.22432Z"/><path class="cls-2" d="M28.281,8.81339S25.40191,6.73632,20.51135,10.067C20.51135,10.067,26.18272,3.00627,28.281,8.81339Z"/><path class="cls-2" d="M28.50087,9.726s-3.19706.29317-5.33479,4.47C23.24875,13.58852,24.21885,8.29069,28.50087,9.726Z"/><path class="cls-2" d="M29.01353,10.06152S26.27519,11.8643,25.70112,14.547C25.70112,14.547,24.53486,11.22778,29.01353,10.06152Z"/><path class="cls-2" d="M29.68689,8.66565s2.98749-1.679,5.0606,3.63418C34.74749,12.29983,35.4377,5.15351,29.68689,8.66565Z"/><path class="cls-2" d="M29.56089,7.94392a6.57417,6.57417,0,0,1,6.92946-2.35147S32.32853.93232,29.56089,7.94392Z"/><path class="cls-2" d="M29.00721,7.053S29.68514,3.13567,34.5021.50369C34.5021.5037,27.7448,1.44258,29.00721,7.053Z"/><path class="cls-3" d="M28.6761,8.57055l1.67848.80968S43.915,22.38894,23.93086,32.20751l.89532-2.783S40.47534,21.50055,28.6761,8.57055Z"/><path class="cls-4" d="M8.31577,31.72169a19.62373,19.62373,0,0,0,25.02562-7.15858c-1.96776-.56789-5.66857-.878-11.14018,1.71423A91.63538,91.63538,0,0,1,8.31577,31.72169Z"/><text class="cls-5" transform="translate(0.76243 15.22535)">TROPICANA</text><path class="cls-6" d="M16.4808,10.73723a.41427.41427,0,0,1,.342-.27917v-.0017h-.19358a.56054.56054,0,0,0-.56052.56056v.131A1.163,1.163,0,0,0,16.4808,10.73723Z"/><path class="cls-6" d="M16.52315,10.70152a1.30328,1.30328,0,0,1-.4122.45938v.00315h.08271c.72446.09815.65518-.70769.65518-.70769A.40628.40628,0,0,0,16.52315,10.70152Z"/><path class="cls-6" d="M6.576,18.06254v.711H3.78944v3.09811H3.02757V18.77355H1.75787v-.711Z"/><path class="cls-6" d="M7.91951,20.21064a.98434.98434,0,0,0,.7-1.051c0-.73243-.44423-1.0965-1.3327-1.0965H5.62469v.71076H6.576v.00219h.88628c.30123.01085.45508.14086.46375.39006-.00866.2752-.1647.41387-.47241.42039H5.62469v2.28616h.7628V20.29732h.69558l.91232,1.57539h.87329Z"/><path class="cls-6" d="M8.84713,21.87166l1.52365-3.80912h.76186l1.5211,3.80661-.81008.0025-.22856-.584H9.88829l-.22852.584ZM10.772,19.0783l-.579,1.4475h1.14274Z"/><path class="cls-6" d="M12.57249,21.87166V18.06h1.46782q1.77758,0,1.77758,1.90711,0,1.90456-1.77758,1.90456Zm1.46782-.75928q1.01319-.00255,1.01576-1.14528-.00255-1.14275-1.01576-1.14274h-.706v2.28805Z"/><path class="cls-6" d="M15.54192,21.87166V18.06505l2.79846-.00251v.711H16.30379v.81263H17.83v.7085h-1.5262v.866h2.03152v.711Z"/><path class="cls-6" d="M20.66569,21.87166V18.06254h2.6791v.711H21.42752v.81264H22.842v.70849H21.42752v1.577Z"/><path class="cls-6" d="M24.21743,21.15978v-.86463H25.743v-.70858H24.21743v-.81264h2.03481v-.71076l-2.7976.00218v3.80738h4.52685v-.71295Z"/><path class="cls-6" d="M29.06932,19.90292a1.87544,1.87544,0,0,0-.87766-.31637,1.00908,1.00908,0,0,1-.5829-.22969.29774.29774,0,0,1,0-.3684c.08454-.143.27953-.21455.5829-.21455H29.208l.2037-.2037a1.77154,1.77154,0,0,0-.54606-.38135,2.13041,2.13041,0,0,0-.82349-.12572.28766.28766,0,0,0-.04332.00219,1.54241,1.54241,0,0,0-.84511.30338.94375.94375,0,0,0-.43342.81044.84352.84352,0,0,0,.38139.78879,2.06854,2.06854,0,0,0,.83649.27953c.338.03252.55039.12134.63489.26653a.40726.40726,0,0,1,0,.43124c-.0845.143-.29686.2145-.63489.2145H26.72029l-.15386.1539a1.94158,1.94158,0,0,0,.61108.4052,2.15193,2.15193,0,0,0,.804.15171c.026.00214.05417.00214.08235.00214a1.52837,1.52837,0,0,0,.9773-.33155.96887.96887,0,0,0,.42039-.7866A.954.954,0,0,0,29.06932,19.90292Z"/><path class="cls-6" d="M27.99882,18.06315v.71076h2.78675v3.0988h.76276v-3.0988H32.8182v-.71076Z"/><rect class="cls-6" x="18.97114" y="19.07831" width="0.87762" height="0.43675"/><rect class="cls-6" x="18.97114" y="20.3606" width="0.87762" height="0.43675"/><rect class="cls-6" x="1.75787" y="16.93632" width="16.58251" height="0.65983"/><rect class="cls-6" x="1.75787" y="22.39711" width="16.58251" height="0.65988"/><rect class="cls-6" x="20.66569" y="16.93632" width="12.1525" height="0.65983"/><rect class="cls-6" x="20.66569" y="22.39711" width="12.1525" height="0.65988"/></svg>